<svg xmlns="http://www.w3.org/2000/svg" width="184" height="101" fill="none" viewBox="0 0 184 101">
  <path fill="url(#a)" d="M157.85 62.89a9.577 9.577 0 0 0 6.918-2.915c1.759-1.82 2.932-4.37 2.932-7.163V27.074c0-2.671-1.055-5.22-2.932-7.163a9.577 9.577 0 0 0-6.918-2.914h-24.743c-2.58 0-5.043 1.093-6.919 2.914-1.759 1.821-2.932 4.37-2.932 7.163h-16.417c0-7.527 2.932-14.326 7.622-19.183C119.152 3.035 125.719 0 132.989 0h24.743c7.271 0 13.838 3.035 18.529 7.891A27.65 27.65 0 0 1 184 27.074v25.86c0 7.527-2.932 14.326-7.739 19.182-4.808 4.978-11.258 8.013-18.529 8.013v-17.24h.118Z"/>
  <path fill="#E67700" d="M184 94.968c-12.086-.365-17.95-6.2-23.814-11.79-3.47-3.282-6.821-6.564-12.206-6.564-4.667 0-8.496-3.89-8.496-8.63s3.829-8.63 8.496-8.63c12.206 0 18.07 5.713 23.934 11.426 3.35 3.16 6.701 6.442 12.086 6.928v17.26Z"/>
  <path fill="url(#b)" d="M62.441 0h34.371c7.348 0 13.985 3.063 18.726 8.086a27.88 27.88 0 0 1 7.823 19.359c0 7.596-2.963 14.457-7.823 19.358-1.659 1.716-3.555 3.308-5.689 4.534a78.459 78.459 0 0 1 6.756 5.88c7.111 6.617 13.511 13.845 19.911 22.912h-21.333c-3.2-3.676-6.282-6.984-9.719-10.17-6.163-5.758-13.274-10.904-21.926-16.295-2.49-1.47-4.03-4.288-4.03-7.473.119-4.779 3.911-8.577 8.415-8.454h8.771a9.688 9.688 0 0 0 6.992-2.94c1.778-1.839 2.845-4.412 2.845-7.23 0-2.818-1.067-5.39-2.845-7.228a9.688 9.688 0 0 0-6.992-2.941H62.323V0h.118Z"/>
  <path fill="#5098E6" fill-rule="evenodd" d="M62.52 80.129H25.152c-6.893 0-13.181-2.818-17.776-7.474A25.548 25.548 0 0 1 0 54.645a25.548 25.548 0 0 1 7.377-18.011c.604-.613 1.088-1.103 1.813-1.593-2.055-3.43-3.144-7.474-3.144-11.762C5.926 10.414 16.204 0 28.901 0h42.325v17.276h-.121v62.853h-8.586Zm-8.466-62.854H28.902c-3.265 0-5.805 2.696-5.805 5.882 0 1.592.605 3.063 1.693 4.165.968.98 2.419 1.716 3.99 1.716h25.395V17.276h-.12Zm-28.901 29.16h28.901v16.418H25.153c-2.177 0-4.233-.98-5.684-2.45-1.45-1.47-2.418-3.43-2.418-5.758 0-2.206.967-4.289 2.418-5.759 1.451-1.47 3.386-2.45 5.684-2.45Z" clip-rule="evenodd"/>
  <path fill="#E67700" fill-rule="evenodd" d="M13.73 95.434c0-1.78-1.06-2.417-2.354-2.417H9.61c-.354 0-.589.128-.589.382v6.995c0 .128.235.382.589.382h1.766c1.295 0 2.354-.636 2.354-2.417v-2.925Zm-3.414 4.197v-5.469h1.06c.706 0 1.059.382 1.059 1.272v2.925c0 .89-.353 1.272-1.06 1.272h-1.06Z" clip-rule="evenodd"/>
  <path fill="#E67700" d="M18.793 93.399c0-.254.353-.382.588-.382.353 0 .589.128.589.382v6.995c0 .255-.353.382-.589.382-.353 0-.588-.127-.588-.382v-6.995Zm8.712.763c-.707 0-1.06.382-1.06 1.272v2.925c0 .89.353 1.272 1.06 1.272.588 0 1.06-.381 1.06-1.272v-.636h-.825c-.235 0-.353-.254-.353-.508 0-.255.117-.51.353-.51h1.648c.236 0 .353.255.353.51v1.272c0 1.78-1.06 2.416-2.354 2.416-1.295 0-2.355-.636-2.355-2.416v-3.053c0-1.78 1.06-2.417 2.237-2.417 1.413 0 2.355.764 2.355 2.035 0 .51-.236.636-.589.636s-.589-.127-.589-.381c0-.509-.117-1.145-.942-1.145Zm7.299-.763c0-.254.353-.382.588-.382.353 0 .589.128.589.382v6.995c0 .255-.353.382-.589.382-.353 0-.588-.127-.588-.382v-6.995Zm10.596-.382c.235 0 .353.382.353.636 0 .382-.118.636-.354.636h-1.412v6.105c0 .255-.354.382-.589.382-.353 0-.589-.127-.589-.382v-6.105h-1.412c-.236 0-.353-.254-.353-.636 0-.254.117-.636.353-.636h4.002Z"/>
  <path fill="#E67700" fill-rule="evenodd" d="m51.285 93.399-1.883 6.868c0 .255.47.509.706.636.236 0 .471 0 .471-.254l.353-1.4h2.237l.353 1.4c.118.127.236.254.471.254.353 0 .824-.254.824-.636v-.127l-1.883-6.741c-.118-.382-.471-.509-.824-.509-.354 0-.707.127-.825.509Zm.825 1.272.824 3.307h-1.648l.824-3.307Z" clip-rule="evenodd"/>
  <path fill="#E67700" d="M60.115 100.776c-.235 0-.589-.127-.589-.382v-6.995c0-.254.354-.382.589-.382.353 0 .589.128.589.382v6.232h2.472c.235 0 .353.255.353.636 0 .255-.118.636-.353.636h-3.061v-.127Zm17.188-2.036c0-1.652-3.178-1.144-3.178-3.688 0-1.653 1.295-2.162 2.354-2.162.589 0 1.884.127 1.884.89 0 .255-.118.764-.471.764s-.589-.382-1.413-.382c-.706 0-1.177.254-1.177.763 0 1.272 3.179.89 3.179 3.689 0 1.526-.942 2.289-2.355 2.289-1.295 0-2.237-.763-2.237-1.272 0-.254.236-.763.589-.763s.706.763 1.648.763c.589 0 1.177-.254 1.177-.89Z"/>
  <path fill="#E67700" fill-rule="evenodd" d="M83.308 95.307v3.052c0 1.781 1.06 2.544 2.354 2.417 1.295 0 2.355-.636 2.355-2.417v-3.052c0-1.78-1.06-2.417-2.355-2.417s-2.354.636-2.354 2.417Zm2.354-1.145c.706 0 1.06.382 1.06 1.272v2.925c0 .89-.471 1.272-1.06 1.272-.706 0-1.06-.381-1.06-1.272v-2.925c0-.89.354-1.272 1.06-1.272Z" clip-rule="evenodd"/>
  <path fill="#E67700" d="M93.668 100.776c-.236 0-.589-.127-.589-.382v-6.995c0-.254.353-.382.589-.382.353 0 .588.128.588.382v6.232h2.473c.235 0 .353.255.353.636 0 .255-.118.636-.353.636h-3.061v-.127Zm11.42-7.377c0-.254.353-.382.588-.382.353 0 .589.128.589.382v4.96c0 1.781-1.06 2.417-2.355 2.417s-2.354-.636-2.354-2.417V93.4c0-.254.353-.382.588-.382.353 0 .589.128.589.382v4.96c0 .89.353 1.272 1.06 1.272.706 0 1.059-.381 1.059-1.272V93.4h.236Zm10.595-.382c.236 0 .353.382.353.636 0 .382-.117.636-.353.636h-1.413v6.105c0 .255-.353.382-.588.382-.353 0-.589-.127-.589-.382v-6.105h-1.413c-.235 0-.353-.254-.353-.636 0-.254.118-.636.353-.636h4.003Zm5.063.382c0-.254.353-.382.588-.382.353 0 .589.128.589.382v6.995c0 .255-.353.382-.589.382-.353 0-.588-.127-.588-.382v-6.995Z"/>
  <path fill="#E67700" fill-rule="evenodd" d="M127.103 95.307v3.052c0 1.781 1.06 2.544 2.355 2.417 1.295 0 2.354-.636 2.354-2.417v-3.052c0-1.78-1.059-2.417-2.354-2.417-1.295 0-2.355.636-2.355 2.417Zm2.354-1.145c.707 0 1.06.382 1.06 1.272v2.925c0 .89-.471 1.272-1.06 1.272-.706 0-1.059-.381-1.059-1.272v-2.925c0-.89.353-1.272 1.059-1.272Z" clip-rule="evenodd"/>
  <path fill="#E67700" d="m140.288 100.394-2.119-4.324v4.324c0 .255-.353.382-.589.382-.353 0-.588-.127-.588-.382v-6.995c0-.254.353-.382.588-.382.471 0 .707.128.942.764l1.884 3.942V93.4c0-.254.353-.382.588-.382.354 0 .589.128.589.382v6.995c0 .255-.353.382-.589.382-.353 0-.588-.127-.706-.382Zm9.536-1.654c0-1.652-3.178-1.144-3.178-3.688 0-1.653 1.295-2.162 2.354-2.162.589 0 1.884.127 1.884.89 0 .255-.118.764-.471.764s-.589-.382-1.413-.382c-.706 0-1.177.254-1.177.763 0 1.272 3.179.89 3.179 3.689 0 1.526-.942 2.289-2.355 2.289-1.295 0-2.237-.763-2.237-1.272 0-.254.236-.763.589-.763s.706.763 1.648.763c.706 0 1.177-.254 1.177-.89Z"/>
  <defs>
    <radialGradient id="a" cx="0" cy="0" r="1" gradientTransform="matrix(0 40.0645 -38.5806 0 145.42 40.065)" gradientUnits="userSpaceOnUse">
      <stop stop-color="#3A8BCB"/>
      <stop offset="0" stop-color="#417EBD"/>
      <stop offset=".255" stop-color="#4585C9"/>
      <stop offset=".505" stop-color="#488BD1"/>
      <stop offset=".708" stop-color="#4B8FD7"/>
      <stop offset=".88" stop-color="#4D93DE"/>
      <stop offset="1" stop-color="#4A8ED7"/>
    </radialGradient>
    <radialGradient id="b" cx="0" cy="0" r="1" gradientTransform="matrix(44.51687 81.61244 -75.5671 41.21935 77.16 7.418)" gradientUnits="userSpaceOnUse">
      <stop stop-color="#4382C2"/>
      <stop offset=".258" stop-color="#4C90D9"/>
      <stop offset=".462" stop-color="#4C90DA"/>
      <stop offset=".67" stop-color="#407CBB"/>
      <stop offset=".84" stop-color="#417EBF"/>
    </radialGradient>
  </defs>
</svg>
