<svg xmlns="http://www.w3.org/2000/svg" width="92" height="51" fill="none" viewBox="0 0 92 51">
  <path fill="url(#a)" d="M78.925 31.445a4.79 4.79 0 0 0 3.46-1.457 5.187 5.187 0 0 0 1.465-3.582V13.537a5.15 5.15 0 0 0-1.466-3.582 4.79 4.79 0 0 0-3.46-1.456h-12.37c-1.29 0-2.522.546-3.46 1.456a5.187 5.187 0 0 0-1.466 3.582h-8.209c0-3.764 1.466-7.163 3.812-9.591A12.843 12.843 0 0 1 66.495 0h12.371c3.635 0 6.919 1.518 9.264 3.946A13.824 13.824 0 0 1 92 13.537v12.93c0 3.764-1.466 7.163-3.87 9.591-2.404 2.489-5.629 4.007-9.264 4.007v-8.62h.059Z"/>
  <path fill="#E67700" d="M92 47.484c-6.043-.182-8.975-3.1-11.907-5.895-1.735-1.641-3.41-3.282-6.103-3.282-2.333 0-4.248-1.945-4.248-4.315s1.915-4.315 4.248-4.315c6.103 0 9.035 2.857 11.967 5.713 1.675 1.58 3.35 3.221 6.043 3.464v8.63Z"/>
  <path fill="url(#b)" d="M31.22 0h17.186a12.81 12.81 0 0 1 9.363 4.043 13.94 13.94 0 0 1 3.911 9.68c0 3.798-1.481 7.228-3.91 9.679-.83.857-1.779 1.654-2.845 2.266 1.185.92 2.31 1.9 3.377 2.94 3.556 3.309 6.756 6.923 9.956 11.457H57.591c-1.6-1.838-3.14-3.492-4.859-5.085-3.082-2.88-6.637-5.452-10.963-8.148-1.245-.735-2.015-2.144-2.015-3.737.06-2.389 1.956-4.288 4.208-4.227h4.384a4.844 4.844 0 0 0 3.496-1.47c.889-.919 1.422-2.205 1.422-3.614 0-1.41-.533-2.696-1.422-3.615a4.844 4.844 0 0 0-3.496-1.47H31.16V0h.06Z"/>
  <path fill="#5098E6" fill-rule="evenodd" d="M31.26 40.065H12.576c-3.447 0-6.591-1.41-8.889-3.737A12.774 12.774 0 0 1 0 27.322c0-3.492 1.39-6.677 3.688-9.005.303-.306.544-.551.907-.796-1.028-1.716-1.572-3.737-1.572-5.882C2.963 5.207 8.103 0 14.451 0h21.162v8.638h-.06v31.427H31.26ZM27.026 8.638H14.451c-1.633 0-2.902 1.347-2.902 2.94 0 .797.302 1.532.846 2.083.484.49 1.21.858 1.995.858h12.697V8.638h-.06Zm-14.45 14.58h14.45v8.209h-14.45c-1.089 0-2.117-.49-2.842-1.225-.726-.736-1.21-1.716-1.21-2.88 0-1.102.484-2.144 1.21-2.879.725-.735 1.693-1.225 2.841-1.225Z" clip-rule="evenodd"/>
  <path fill="#E67700" fill-rule="evenodd" d="M6.865 47.717c0-.89-.53-1.208-1.177-1.208h-.883c-.177 0-.294.063-.294.19v3.498c0 .064.117.191.294.191h.883c.647 0 1.177-.318 1.177-1.208v-1.463Zm-1.707 2.099V47.08h.53c.353 0 .53.19.53.636v1.463c0 .445-.177.636-.53.636h-.53Z" clip-rule="evenodd"/>
  <path fill="#E67700" d="M9.396 46.7c0-.128.177-.191.294-.191.177 0 .295.063.295.19v3.498c0 .127-.177.191-.294.191-.177 0-.295-.064-.295-.19V46.7Zm4.356.381c-.353 0-.53.19-.53.636v1.463c0 .445.177.636.53.636.294 0 .53-.191.53-.636v-.318h-.412c-.118 0-.177-.128-.177-.255s.06-.254.177-.254h.824c.118 0 .177.127.177.254v.636c0 .89-.53 1.209-1.178 1.209-.647 0-1.177-.318-1.177-1.209v-1.526c0-.89.53-1.208 1.118-1.208.707 0 1.178.381 1.178 1.017 0 .255-.118.318-.295.318-.176 0-.294-.063-.294-.19 0-.255-.059-.573-.47-.573Zm3.65-.381c0-.128.176-.191.294-.191.177 0 .294.063.294.19v3.498c0 .127-.176.191-.294.191-.177 0-.294-.064-.294-.19V46.7Zm5.298-.191c.117 0 .176.19.176.318 0 .19-.059.318-.176.318h-.707v3.052c0 .127-.176.191-.294.191-.177 0-.294-.064-.294-.19v-3.053h-.707c-.117 0-.176-.128-.176-.318 0-.127.059-.318.176-.318H22.7Z"/>
  <path fill="#E67700" fill-rule="evenodd" d="m25.643 46.7-.942 3.434c0 .127.235.254.353.318.118 0 .236 0 .236-.128l.176-.7h1.119l.176.7c.06.064.118.128.236.128.176 0 .412-.128.412-.318v-.064l-.942-3.37c-.059-.191-.235-.255-.412-.255s-.353.064-.412.255Zm.412.636.412 1.653h-.824l.412-1.653Z" clip-rule="evenodd"/>
  <path fill="#E67700" d="M30.058 50.388c-.118 0-.295-.064-.295-.19V46.7c0-.128.177-.191.295-.191.176 0 .294.063.294.19v3.117h1.236c.118 0 .177.127.177.318 0 .127-.06.318-.177.318h-1.53v-.064Zm8.594-1.018c0-.826-1.59-.572-1.59-1.844 0-.827.648-1.08 1.178-1.08.294 0 .941.063.941.444 0 .127-.058.382-.235.382-.176 0-.294-.19-.706-.19-.354 0-.589.126-.589.38 0 .637 1.59.446 1.59 1.845 0 .763-.471 1.145-1.178 1.145-.647 0-1.118-.382-1.118-.636 0-.128.117-.382.294-.382s.353.382.824.382c.294 0 .589-.128.589-.446Z"/>
  <path fill="#E67700" fill-rule="evenodd" d="M41.654 47.653v1.527c0 .89.53 1.272 1.177 1.208.648 0 1.177-.318 1.177-1.208v-1.527c0-.89-.53-1.208-1.177-1.208s-1.177.318-1.177 1.208Zm1.177-.572c.353 0 .53.19.53.636v1.463c0 .445-.235.636-.53.636-.353 0-.53-.191-.53-.636v-1.463c0-.445.177-.636.53-.636Z" clip-rule="evenodd"/>
  <path fill="#E67700" d="M46.834 50.388c-.118 0-.294-.064-.294-.19V46.7c0-.128.176-.191.294-.191.177 0 .294.063.294.19v3.117h1.236c.118 0 .177.127.177.318 0 .127-.059.318-.176.318h-1.531v-.064Zm5.71-3.688c0-.128.176-.191.294-.191.177 0 .294.063.294.19v2.48c0 .891-.53 1.209-1.177 1.209s-1.177-.318-1.177-1.208V46.7c0-.128.176-.191.294-.191.177 0 .294.063.294.19v2.48c0 .446.177.637.53.637.353 0 .53-.191.53-.636V46.7h.118Zm5.298-.191c.117 0 .176.19.176.318 0 .19-.059.318-.176.318h-.707v3.052c0 .127-.176.191-.294.191-.177 0-.294-.064-.294-.19v-3.053h-.707c-.118 0-.176-.128-.176-.318 0-.127.058-.318.176-.318h2.002Zm2.531.191c0-.128.176-.191.294-.191.177 0 .294.063.294.19v3.498c0 .127-.176.191-.294.191-.177 0-.294-.064-.294-.19V46.7Z"/>
  <path fill="#E67700" fill-rule="evenodd" d="M63.551 47.653v1.527c0 .89.53 1.272 1.178 1.208.647 0 1.177-.318 1.177-1.208v-1.527c0-.89-.53-1.208-1.177-1.208-.648 0-1.178.318-1.178 1.208Zm1.178-.572c.353 0 .53.19.53.636v1.463c0 .445-.236.636-.53.636-.353 0-.53-.191-.53-.636v-1.463c0-.445.177-.636.53-.636Z" clip-rule="evenodd"/>
  <path fill="#E67700" d="m70.144 50.197-1.06-2.162v2.162c0 .127-.176.191-.294.191-.176 0-.294-.064-.294-.19V46.7c0-.128.177-.191.294-.191.236 0 .353.063.471.381l.942 1.972v-2.163c0-.127.177-.19.294-.19.177 0 .295.063.295.19v3.498c0 .127-.177.191-.295.191-.176 0-.294-.064-.353-.19Zm4.768-.827c0-.826-1.59-.572-1.59-1.844 0-.827.648-1.08 1.178-1.08.294 0 .942.063.942.444 0 .127-.059.382-.235.382-.177 0-.295-.19-.707-.19-.353 0-.589.126-.589.38 0 .637 1.59.446 1.59 1.845 0 .763-.471 1.145-1.178 1.145-.647 0-1.118-.382-1.118-.636 0-.128.118-.382.294-.382.177 0 .354.382.825.382.353 0 .588-.128.588-.446Z"/>
  <defs>
    <radialGradient id="a" cx="0" cy="0" r="1" gradientTransform="matrix(0 20.0323 -19.2903 0 72.71 20.032)" gradientUnits="userSpaceOnUse">
      <stop stop-color="#3A8BCB"/>
      <stop offset="0" stop-color="#417EBD"/>
      <stop offset=".255" stop-color="#4585C9"/>
      <stop offset=".505" stop-color="#488BD1"/>
      <stop offset=".708" stop-color="#4B8FD7"/>
      <stop offset=".88" stop-color="#4D93DE"/>
      <stop offset="1" stop-color="#4A8ED7"/>
    </radialGradient>
    <radialGradient id="b" cx="0" cy="0" r="1" gradientTransform="matrix(22.25844 40.80622 -37.78355 20.60967 38.58 3.71)" gradientUnits="userSpaceOnUse">
      <stop stop-color="#4382C2"/>
      <stop offset=".258" stop-color="#4C90D9"/>
      <stop offset=".462" stop-color="#4C90DA"/>
      <stop offset=".67" stop-color="#407CBB"/>
      <stop offset=".84" stop-color="#417EBF"/>
    </radialGradient>
  </defs>
</svg>
