<svg xmlns="http://www.w3.org/2000/svg" width="39" height="34" fill="none" viewBox="0 0 39 34">
  <path stroke="#E67700" stroke-width="2" d="M37.072 6.673c-.364-.436-.872-.727-1.454-.727H10.745l-.872-3.564A1.877 1.877 0 0 0 8.055 1H2.89C1.873 1 1 1.8 1 2.89c0 1.019.8 1.892 1.89 1.892H6.6l.872 3.49v.146l3.71 14.763c.217.8.945 1.382 1.817 1.382h18.982c.872 0 1.6-.581 1.818-1.454l3.564-14.763c.145-.655 0-1.236-.291-1.673ZM18.818 29.727a3.272 3.272 0 1 1-6.545 0 3.272 3.272 0 0 1 6.545 0Zm12.945 0a3.272 3.272 0 1 1-6.545 0 3.272 3.272 0 0 1 6.545 0Z"/>
</svg>
