<svg xmlns="http://www.w3.org/2000/svg" width="41" height="35" fill="none" viewBox="0 0 41 35">
  <path fill="#E67700" d="M40.45 8.853a10.273 10.273 0 0 0-3.399-5.997A11.833 11.833 0 0 0 31.015.13a11.42 11.42 0 0 0-6.518.928 10.559 10.559 0 0 0-4.186 3.56A10.519 10.519 0 0 0 15.62.835 11.713 11.713 0 0 0 8.55.331a11.5 11.5 0 0 0-5.988 3.534 10.446 10.446 0 0 0-2.56 7.009c.007 7.96 5.7 12.075 11.202 16.054 3.037 2.196 6.177 4.467 8.344 7.37a.954.954 0 0 0 1.528 0c1.912-2.56 4.856-4.744 7.972-7.055 3.1-2.3 6.305-4.68 8.555-7.55 2.62-3.346 3.552-6.89 2.848-10.84ZM8.988 2.187a10.23 10.23 0 0 1 2.345-.27 8.761 8.761 0 0 1 8.128 4.997.953.953 0 0 0 1.706 0c2.154-4.317 6.36-5.36 9.579-4.897 4.085.588 7.156 3.403 7.829 7.171.358 1.84.24 3.74-.343 5.52l-7.6-.047a.962.962 0 0 0-.615.22l-1.384 1.149-2.861-2.147a.954.954 0 0 0-1.373.246l-2.703 4.192-1.326-7.956a.953.953 0 0 0-1.764-.325l-3.342 5.684-1.674-2.082a.954.954 0 0 0-1.127-.274L9.3 14.763H2.503a12.567 12.567 0 0 1-.595-3.89C1.902 5.698 5.72 2.96 8.988 2.187h-.001ZM27.912 25.71c-2.73 2.027-5.543 4.114-7.595 6.493-2.26-2.671-5.17-4.777-7.995-6.82-3.64-2.632-7.141-5.165-9.012-8.714h6.192a.953.953 0 0 0 .385-.082l2.678-1.181 2.081 2.587a.954.954 0 0 0 1.565-.114l2.71-4.61 1.299 7.798a.954.954 0 0 0 1.741.36l3.485-5.404 2.645 1.983a.954.954 0 0 0 1.181-.029l1.697-1.407 6.425.04c-1.935 3.498-5.642 6.25-9.482 9.1Z"/>
</svg>
