<svg xmlns="http://www.w3.org/2000/svg" width="33" height="36" fill="none" viewBox="0 0 33 36">
  <path fill="#E67700" stroke="#E67700" d="M16.862 31.869c-2.864 0-5.557-1.14-7.582-3.211-2.026-2.07-3.141-4.824-3.141-7.752 0-2.929 1.115-5.682 3.14-7.753 2.026-2.07 4.719-3.21 7.583-3.21 2.865 0 5.558 1.14 7.583 3.21 2.025 2.071 3.14 4.824 3.14 7.753 0 2.928-1.115 5.681-3.14 7.752-2.025 2.07-4.718 3.21-7.583 3.21Zm0-20.993c-5.41 0-9.81 4.5-9.81 10.03 0 5.53 4.4 10.03 9.81 10.03s9.81-4.5 9.81-10.03c0-5.531-4.4-10.03-9.81-10.03Z"/>
  <path fill="#E67700" d="M32.544 35.995h-2.048a.452.452 0 0 1-.324-.137.472.472 0 0 1-.133-.33l.029-12.121c-2.13-15.307-.73-20.702.822-22.53.667-.786 1.328-.87 1.58-.87.074 0 .124.006.147.01a.464.464 0 0 1 .383.46v35.051a.461.461 0 0 1-.456.467Zm-1.59-.933h1.133V1.055c-.145.08-.319.212-.507.434-.554.654-1.276 2.145-1.56 5.54-.328 3.896-.005 9.372.957 16.279a.468.468 0 0 1 .005.067l-.028 11.687ZM2.24 10.25a.462.462 0 0 1-.457-.466V.467C1.783.21 1.987 0 2.24 0c.252 0 .456.21.456.467v9.317a.462.462 0 0 1-.456.466Zm1.998 0a.462.462 0 0 1-.457-.466V.467c0-.258.205-.467.457-.467s.457.21.457.467v9.317a.462.462 0 0 1-.457.466Z"/>
  <path fill="#E67700" stroke="#E67700" stroke-width=".5" d="M1.95 34.223v.008c-.008.068-.025.27.01.506.037.238.122.492.301.689.13.143.368.316.78.324h.028c.036 0 .073-.001.11-.004M1.95 34.223l1.247 1.773M1.95 34.223v-.008c.337-7.032.47-12.335.394-15.758-.058-2.616-.226-3.293-.273-3.439l-.011-.034-.02-.03C.533 12.758.26 11.142.252 11.101l-.247.041.247-.04a.236.236 0 0 1-.003-.037V.466A.214.214 0 0 1 .457.25c.109 0 .206.092.206.217v10.578l.006.025c.052.256.395 1.713 1.697 3.618l.007.01.01.011c.019.023.09.12.162.54.072.413.14 1.107.185 2.287.125 3.292-.001 9.071-.368 16.718a.19.19 0 0 1-.001.018v.004c-.012.094-.014.24.008.388.02.138.068.329.193.464a.518.518 0 0 0 .19.133.878.878 0 0 0 .4.052m-1.202-1.09 1.186.841m.044.682.017.25m-.017-.25.017.25m-.017-.25a.214.214 0 0 0 .193-.23.211.211 0 0 0-.22-.203m.044.683a.463.463 0 0 0 .425-.497.461.461 0 0 0-.486-.435m.017.25-.017-.25m.017.25-.017-.25"/>
  <path fill="#E67700" stroke="#E67700" stroke-width=".5" d="M3.731 34.959c.146-.157.156-.51.138-.655m-.138.655c-.028.03-.113.123-.39.105l.528-.76m-.138.655.184.17v-.001l-.184-.169Zm.138-.655a.375.375 0 0 1-.003-.038l.003.038Zm-.545 1.01 1.077.28c-.173.19-.482.406-.992.406-.041 0-.084-.001-.128-.004l.017-.25a.214.214 0 0 1-.193-.23.21.21 0 0 1 .22-.202Z"/>
</svg>
