<svg xmlns="http://www.w3.org/2000/svg" width="35" height="33" fill="none" viewBox="0 0 35 33">
  <path fill="#E67700" d="M32.76 3.805C30.43.918 27.558-.015 25.061 0c-3.047.01-5.577 1.28-6.518 1.812-1.076-.485-4.18-1.74-7.725-1.75C7.954.05 4.736.927 2.296 3.786.653 5.699-.007 7.74 0 9.679c.005 2.665 1.175 5.094 2.424 7.08 1.246 1.972 2.629 3.59 3.05 4.356.686 1.163 1.026 4.07 1.66 6.637.328 1.299.745 2.535 1.44 3.529.671.983 1.747 1.719 3.105 1.719h.04a2.671 2.671 0 0 0 1.901-.761c1.606-1.667 1.681-4.72 2.074-7.428.168-1.348.376-2.597.702-3.403.159-.407.34-.693.508-.842a.732.732 0 0 1 .533-.213c.279.01.43.078.645.286.374.364.743 1.28.996 2.439.397 1.735.624 3.963 1.132 5.824.255.931.582 1.792 1.114 2.48.52.693 1.348 1.197 2.322 1.183a3.317 3.317 0 0 0 2.976-1.653c.868-1.44 1.038-3.353 1.28-5.224.217-1.86.494-3.672 1.154-4.68 1.404-2.3 5.899-6.313 5.944-11.402.004-1.875-.653-3.857-2.24-5.801ZM27.722 20.16c-1.232 1.996-1.249 4.836-1.63 7.153-.175 1.15-.432 2.152-.818 2.767-.404.61-.768.877-1.63.906-.67-.01-1.08-.383-1.548-1.428-.655-1.526-.922-4.09-1.36-6.286-.227-1.109-.492-2.128-.957-2.97-.44-.828-1.263-1.542-2.341-1.528a2.346 2.346 0 0 0-1.776.804c-.74.844-1.033 2.005-1.277 3.301-.345 1.94-.485 4.23-.882 5.967-.19.863-.454 1.574-.759 1.995-.321.421-.558.563-1.021.577-.833-.014-1.336-.343-1.854-1.047-.763-1.062-1.239-2.975-1.615-4.886-.395-1.927-.676-3.824-1.4-5.146-.6-1.047-1.908-2.54-3.092-4.424-1.183-1.866-2.187-4.055-2.183-6.236.008-1.589.502-3.199 1.918-4.861 2.095-2.439 4.748-3.169 7.323-3.174 1.95-.004 3.816.438 5.19.887.686.222 1.246.447 1.634.615.386.16.582.267.584.262.25.13.556.116.79-.042.002 0 .151-.097.459-.268.924-.508 3.14-1.525 5.582-1.52 2.13.014 4.415.712 6.472 3.223 1.39 1.72 1.88 3.292 1.884 4.803.045 4.122-3.993 7.96-5.694 10.556Z"/>
</svg>
